HIERARCHY
ROOT hip
{
  OFFSET 0 0 0
  CHANNELS 6 Xposition Yposition Zposition Zrotation Yrotation Xrotation
  JOINT abdomen
  {
    OFFSET 0 20.6881 -0.73152
    CHANNELS 3 Zrotation Xrotation Yrotation
    JOINT chest
    {
      OFFSET 0 11.7043 -0.48768
      CHANNELS 3 Zrotation Xrotation Yrotation
      JOINT neck
      {
        OFFSET 0 22.1894 -2.19456
        CHANNELS 3 Zrotation Xrotation Yrotation
        JOINT head
        {
          OFFSET -0.24384 7.07133 1.2192
          CHANNELS 3 Zrotation Xrotation Yrotation
          JOINT leftEye
          {
            OFFSET 4.14528 8.04674 8.04672
            CHANNELS 3 Zrotation Xrotation Yrotation
            End Site
            {
              OFFSET 1 0 0
            }
          }
          JOINT rightEye
          {
            OFFSET -3.6576 8.04674 8.04672
            CHANNELS 3 Zrotation Xrotation Yrotation
            End Site
            {
              OFFSET 1 0 0
            }
          }
        }
      }
      JOINT rCollar
      {
        OFFSET -2.68224 19.2634 -4.8768
        CHANNELS 3 Zrotation Xrotation Yrotation
        JOINT rShldr
        {
          OFFSET -8.77824 -1.95073 1.46304
          CHANNELS 3 Zrotation Xrotation Yrotation
          JOINT rForeArm
          {
            OFFSET -28.1742 -1.7115 0.48768
            CHANNELS 3 Zrotation Xrotation Yrotation
            JOINT rHand
            {
              OFFSET -22.5879 0.773209 7.07136
              CHANNELS 3 Zrotation Xrotation Yrotation
              JOINT rThumb1
              {
                OFFSET -1.2192 -0.487915 3.41376
                CHANNELS 3 Zrotation Xrotation Yrotation
                JOINT rThumb2
                {
                  OFFSET -3.37035 -0.52449 3.41376
                  CHANNELS 3 Zrotation Xrotation Yrotation
                  End Site
                  {
                    OFFSET -1.78271 -1.18214 1.43049
                  }
                }
              }
              JOINT rIndex1
              {
                OFFSET -7.75947 0.938293 5.60832
                CHANNELS 3 Zrotation Xrotation Yrotation
                JOINT rIndex2
                {
                  OFFSET -2.54057 -0.884171 1.56538
                  CHANNELS 3 Zrotation Xrotation Yrotation
                  End Site
                  {
                    OFFSET -1.62519 -0.234802 1.16502
                  }
                }
              }
              JOINT rMid1
              {
                OFFSET -8.24714 1.18213 3.41376
                CHANNELS 3 Zrotation Xrotation Yrotation
                JOINT rMid2
                {
                  OFFSET -3.10165 -0.590103 1.0647
                  CHANNELS 3 Zrotation Xrotation Yrotation
                  End Site
                  {
                    OFFSET -2.48547 -0.328903 0.83742
                  }
                }
              }
              JOINT rRing1
              {
                OFFSET -8.82822 0.546677 1.51678
                CHANNELS 3 Zrotation Xrotation Yrotation
                JOINT rRing2
                {
                  OFFSET -2.60934 -0.819778 -0.0198488
                  CHANNELS 3 Zrotation Xrotation Yrotation
                  End Site
                  {
                    OFFSET -2.33842 -0.294052 0.168128
                  }
                }
              }
              JOINT rPinky1
              {
                OFFSET -8.27202 -0.0477905 -0.4584
                CHANNELS 3 Zrotation Xrotation Yrotation
                JOINT rPinky2
                {
                  OFFSET -1.82734 -0.647385 -0.700984
                  CHANNELS 3 Zrotation Xrotation Yrotation
                  End Site
                  {
                    OFFSET -1.69225 -0.51767 -0.607171
                  }
                }
              }
            }
          }
        }
      }
      JOINT lCollar
      {
        OFFSET 2.68224 19.2634 -4.8768
        CHANNELS 3 Zrotation Xrotation Yrotation
        JOINT lShldr
        {
          OFFSET 8.77824 -1.95073 1.46304
          CHANNELS 3 Zrotation Xrotation Yrotation
          JOINT lForeArm
          {
            OFFSET 28.1742 -1.7115 0.48768
            CHANNELS 3 Zrotation Xrotation Yrotation
            JOINT lHand
            {
              OFFSET 22.5879 0.773209 7.07136
              CHANNELS 3 Zrotation Xrotation Yrotation
              JOINT lThumb1
              {
                OFFSET 1.2192 -0.487915 3.41376
                CHANNELS 3 Zrotation Xrotation Yrotation
                JOINT lThumb2
                {
                  OFFSET 3.37035 -0.52449 3.41376
                  CHANNELS 3 Zrotation Xrotation Yrotation
                  End Site
                  {
                    OFFSET 1.78271 -1.18214 1.43049
                  }
                }
              }
              JOINT lIndex1
              {
                OFFSET 7.75947 0.938293 5.60832
                CHANNELS 3 Zrotation Xrotation Yrotation
                JOINT lIndex2
                {
                  OFFSET 2.54057 -0.884171 1.56538
                  CHANNELS 3 Zrotation Xrotation Yrotation
                  End Site
                  {
                    OFFSET 1.62519 -0.234802 1.16502
                  }
                }
              }
              JOINT lMid1
              {
                OFFSET 8.24714 1.18213 3.41376
                CHANNELS 3 Zrotation Xrotation Yrotation
                JOINT lMid2
                {
                  OFFSET 3.10165 -0.590103 1.0647
                  CHANNELS 3 Zrotation Xrotation Yrotation
                  End Site
                  {
                    OFFSET 2.48547 -0.328903 0.83742
                  }
                }
              }
              JOINT lRing1
              {
                OFFSET 8.82822 0.546677 1.51678
                CHANNELS 3 Zrotation Xrotation Yrotation
                JOINT lRing2
                {
                  OFFSET 2.60934 -0.819778 -0.0198488
                  CHANNELS 3 Zrotation Xrotation Yrotation
                  End Site
                  {
                    OFFSET 2.33842 -0.294052 0.168128
                  }
                }
              }
              JOINT lPinky1
              {
                OFFSET 8.27202 -0.0477905 -0.4584
                CHANNELS 3 Zrotation Xrotation Yrotation
                JOINT lPinky2
                {
                  OFFSET 1.82734 -0.647385 -0.700984
                  CHANNELS 3 Zrotation Xrotation Yrotation
                  End Site
                  {
                    OFFSET 1.69225 -0.51767 -0.607171
                  }
                }
              }
            }
          }
        }
      }
    }
  }
  JOINT rButtock
  {
    OFFSET -8.77824 4.35084 1.2192
    CHANNELS 3 Zrotation Xrotation Yrotation
    JOINT rThigh
    {
      OFFSET 0 -1.70687 -2.19456
      CHANNELS 3 Zrotation Xrotation Yrotation
      JOINT rShin
      {
        OFFSET 0 -36.8199 0.73152
        CHANNELS 3 Zrotation Xrotation Yrotation
        JOINT rFoot
        {
          OFFSET 0.73152 -45.1104 -5.12064
          CHANNELS 3 Zrotation Xrotation Yrotation
          End Site
          {
            OFFSET -1.1221 -3.69964 12.103
          }
        }
      }
    }
  }
  JOINT lButtock
  {
    OFFSET 8.77824 4.35084 1.2192
    CHANNELS 3 Zrotation Xrotation Yrotation
    JOINT lThigh
    {
      OFFSET 0 -1.70687 -2.19456
      CHANNELS 3 Zrotation Xrotation Yrotation
      JOINT lShin
      {
        OFFSET 0 -36.8199 0.73152
        CHANNELS 3 Zrotation Xrotation Yrotation
        JOINT lFoot
        {
          OFFSET -0.73152 -45.1104 -5.12064
          CHANNELS 3 Zrotation Xrotation Yrotation
          End Site
          {
            OFFSET 1.1221 -3.69964 12.103
          }
        }
      }
    }
  }
}
MOTION
Frames:	7
Frame Time:	0.03333
0.0 0.0 0.0 0.0 0.0 0.0 0.0 0.0 0.0 0.0 0.0 0.0 0.0 0.0 0.0 0.0 0.0 0.0 0.0 0.0 0.0 0.0 0.0 0.0 0.0 0.0 0.0 0.0 0.0 0.0 0.0 0.0 0.0 0.0 0.0 0.0 0.0 0.0 0.0 0.0 0.0 0.0 0.0 0.0 0.0 0.0 0.0 0.0 0.0 0.0 0.0 0.0 0.0 0.0 0.0 0.0 0.0 0.0 0.0 0.0 0.0 0.0 0.0 0.0 0.0 0.0 0.0 0.0 0.0 0.0 0.0 0.0 0.0 0.0 0.0 0.0 0.0 0.0 0.0 0.0 0.0 0.0 0.0 0.0 0.0 0.0 0.0 0.0 0.0 0.0 0.0 0.0 0.0 0.0 0.0 0.0 0.0 0.0 0.0 0.0 0.0 0.0 0.0 0.0 0.0 0.0 0.0 0.0 0.0 0.0 0.0 0.0 0.0 0.0 0.0 0.0 0.0 0.0 0.0 0.0 0.0 0.0 0.0 0.0 0.0 0.0 0.0 0.0 0.0 0.0 0.0 0.0
-2.4832 63.9084 -2.9503999999999997 7.074414 -29.780793 2.544566 -10.127049 17.753728 2.711982 1.930213 -10.95544 3.050533 -4.847177 31.404314 -161.623887 19.963756 43.604973 132.678197 0.001525 -0.0 -0.001252 0.001525 -0.0 -0.001252 -40.046295 -86.05557 -61.577712 64.283816 19.954807 13.926094 165.824667 -42.462053 94.609678 165.007799 -21.210831 144.140999 -4.166641 4.057462 0.782899 -122.743134 -16.518166 109.288716 -148.885242 -12.609548 120.245844 -62.458156 57.288725 45.898519 -36.035605 51.723462 29.831657 -163.096054 -4.756837 143.252423 -145.119039 0.226193 -179.20045 11.906228 29.602528 -5.637317 -8.19141 -17.575507 -7.730708 -85.845983 -53.712547 -85.702081 151.261191 17.589825 -156.535519 39.627501 -20.540536 -48.422463 -119.300873 -41.315967 126.444595 24.437998 8.517549 -4.128415 175.1976 -12.846323 -89.807887 10.621406 -49.329747 -2.613428 -159.639254 -69.972916 -102.393467 168.909684 -35.902968 -114.900977 36.035138 51.724043 -29.830368 155.779988 15.560052 -139.814033 0.000596 0.06385 -0.019139 155.85207 -8.256844 -172.842839 110.0555 -41.782033 108.126846 41.392804 -49.32794 42.832204 -179.996021 75.749327 -0.004105 159.494812 -4.186874 -78.953676 -91.98665 8.776888 -80.749069 62.318462 -1.31307 178.139709 179.993642 75.750361 0.005232 -128.11579 70.127202 -0.0 28.11851 26.364877 -95.040183 15.364297 -71.700656 92.496156
-5.0662 64.5573 -4.7315000000000005 7.032417 -25.072378 4.529763 -7.437953 15.893275 -103.508347 8.360253 0.85701 109.994565 7.179698 18.777169 87.238112 -36.393888 11.07252 -100.668093 -0.003031 0.0 -0.001637 -0.002394 -0.0 0.001443 1.989896 -14.052949 -2.881008 55.252982 -13.539383 70.233006 0.285446 18.158308 42.063143 -7.115402 32.510612 2.282702 -171.652475 -9.336474 89.950915 -148.50032 5.727234 76.636797 -19.17129 24.114749 13.3797 -67.157107 48.767158 49.330699 -160.672097 -6.667737 143.246263 27.614531 -57.43728 5.45533 -75.673057 -72.114011 -92.829623 13.942707 29.732087 -0.629883 12.990282 44.344059 10.760487 0.763858 -2.495914 -1.12058 40.82184 -86.097111 62.365891 -99.474491 37.17343 108.638611 -85.249267 29.405429 -66.576576 40.037195 35.730907 -20.031468 -71.83084 -48.264044 -25.79177 19.960411 -12.984678 19.023325 55.104238 41.857871 -44.236339 -12.646846 -9.869891 3.908952 5.531237 14.563591 -3.524139 -173.357687 -58.973167 -137.157492 -0.000824 0.022589 -0.007163 156.579744 -32.213862 -175.636854 -0.320058 0.844312 -0.297476 -19.67331 59.125271 -9.597736 179.999335 75.748797 0.000455 160.628333 -3.018281 0.0 -3.939601 78.43018 37.765012 -74.992107 35.82383 7.690653 -179.998618 75.748797 -0.001137 -130.012694 64.506251 -146.135201 -34.799457 -6.742412 64.595069 30.454748 19.212196 46.452312
-8.2935 65.6298 -6.5987 6.393311 -18.179418 7.126727 -7.136835 16.540764 -109.02402 8.817525 0.823088 116.74068 8.131926 22.20712 109.197716 -34.891964 25.28044 -114.086825 -0.004711 0.0 -0.001868 0.000983 -0.0 -0.002023 -159.211784 -46.728659 170.136754 -109.714186 -6.351879 -152.111066 124.105198 -4.536329 171.53419 -155.713519 63.360568 133.533312 81.277018 -49.994731 32.239838 -158.585173 -28.12884 127.526005 -108.42702 34.161611 91.74371 -90.076695 53.534576 66.826703 -36.036679 51.722623 29.833281 92.01242 -78.476732 62.843387 -145.110854 -0.627502 -178.932457 10.823044 6.914455 -8.157479 12.630393 42.934216 10.535311 -25.111523 -41.087227 -25.164154 6.250654 26.219356 -7.467327 -72.879315 9.93849 -13.321581 -97.135621 31.018962 -80.175504 60.439094 49.645774 -40.411651 174.193456 -11.857336 -89.870216 163.324568 -2.169183 -87.07776 2.685912 4.226783 -1.584127 166.8091 -20.338549 -109.630667 153.321239 13.628834 -138.861776 -174.672783 -56.65232 -137.758659 145.117996 0.240515 179.203478 152.387756 -25.063874 175.33162 167.308882 79.513658 148.59723 161.735994 54.071311 147.877002 0.001029 -0.000483 -0.001323 -57.495077 -71.061514 180.0 -92.035412 -42.689607 -57.895754 93.438689 -36.424713 -169.609581 -179.99727 75.750125 -0.0 -135.08022 59.091204 180.0 -28.024758 -30.510759 15.404605 56.189359 -16.814555 148.984124
-12.2608 67.144 -8.1214 6.479737 -8.387758 9.507812 -8.382836 16.114708 -152.035559 4.649714 6.229044 159.997758 -4.985021 11.023496 -7.569079 3.507075 -28.839407 1.177797 0.001884 0.0 0.000492 0.001884 0.0 0.000492 -85.537592 68.182631 88.68889 135.895739 0.005619 178.993162 13.218287 47.056712 37.78397 -11.361644 37.693892 2.984499 171.560585 -25.005281 87.392977 -138.870785 16.345942 75.014633 -117.599139 28.182127 99.434261 4.568537 4.20348 -6.687231 -167.373859 -28.008792 145.268748 -37.142115 56.040123 31.566059 0.001141 -0.060657 -0.020382 9.23687 12.719497 1.666937 -144.859952 11.079686 -141.542757 -5.896407 -17.406688 -8.832691 150.168318 21.535109 -155.275034 -102.924003 -38.836698 -134.180888 -29.7361 -18.573824 -116.703101 18.825051 -6.91775 1.615713 -4.530801 -4.514124 0.521458 131.635153 -27.34866 -117.485861 50.386367 40.826412 -40.02466 67.699552 50.43263 -47.784303 36.912726 52.190102 -30.651102 34.335849 55.119517 -29.136883 73.163408 -72.141288 90.198691 82.399227 83.109651 -100.273226 79.222679 -51.406345 77.662894 164.765817 66.51141 147.342487 -179.989417 75.749322 -0.009337 165.892339 0.041304 -0.27571 -5.440016 79.426197 77.480673 -16.220489 -32.545654 -97.44422 -179.989417 75.749322 -0.009337 -141.445769 53.496927 -0.0 33.635769 19.319481 46.932766 -152.741409 8.786655 70.073918
-16.4206 68.5943 -8.7037 6.333009 4.719473 11.842658 -8.289966 21.163439 2.687269 -0.769938 -12.341959 4.668601 9.001107 17.509394 86.701286 -35.611369 11.256609 -85.574472 -0.001271 -0.0 0.000465 -0.001271 -0.0 0.000465 0.071216 -0.427769 -0.094991 57.511258 -20.539452 71.914876 4.501088 21.377231 50.948827 -8.778024 29.935966 1.663194 2.462076 -2.446278 -0.327187 2.140902 -3.653985 -3.473837 -108.427324 34.160669 91.742823 -169.311718 -20.045864 116.04074 23.90248 -61.334078 1.397733 -176.730316 -42.213275 142.756602 -0.00918 -0.872156 -0.275058 10.386267 0.215144 -0.039323 -141.698392 1.899176 -138.684509 -160.907749 52.780543 -146.827582 0.049079 0.292429 -0.064644 -64.316404 12.142978 -8.253649 88.787101 -31.143367 -71.472107 174.939753 -57.430651 -158.667372 5.433551 5.265077 -1.077218 -75.88108 -77.253258 -7.357775 -12.217546 -21.784389 5.121216 -35.557928 -30.246164 -0.14649 0.056938 0.16799 -0.032124 -2.881183 1.036408 -0.112886 145.120187 0.226805 179.199144 73.708233 -78.002284 95.208694 1.188648 -3.006937 1.098742 146.854657 10.302203 143.361524 0.0 -0.000847 0.000353 -34.413503 -69.326333 -0.0 76.679641 58.380906 38.076056 63.100252 58.590285 -157.314891 -6.7e-05 5.4e-05 8.6e-05 25.113374 -28.826242 180.0 -1.720456 -43.337032 24.990884 -106.505032 31.216758 170.388282
-20.018900000000002 69.6572 -8.0735 6.048654 20.74905 13.502649 -4.68819 16.81023 -164.168578 3.171518 7.162399 168.815319 9.856759 18.288359 92.650201 -34.33142 15.148239 -84.800894 -0.003357 0.0 -0.00332 -0.003613 -0.0 0.00155 -129.706617 55.102294 133.553127 -46.553891 -34.809976 -13.646427 68.514053 70.452324 -156.232257 173.967647 -6.822054 144.847509 -5.434278 5.264669 1.078065 157.911481 -79.820016 80.390366 10.211286 -18.050854 -4.561977 -24.013267 38.274643 18.921515 -167.375094 -28.008607 145.268643 11.460104 -24.910766 -1.15407 -31.709857 -66.108647 -46.284261 7.653613 -62.396053 -16.271709 16.515713 57.859106 12.548604 9.418482 24.916815 5.356953 -3.928084 -36.415272 7.020766 -65.507761 22.393796 8.19184 105.291862 -37.237551 -75.32921 173.469059 -38.736006 -153.148576 -93.028567 -51.083533 -40.500744 123.493258 -86.638941 162.033861 172.897818 -51.89361 -120.181584 -1.750104 22.696181 3.38843 125.642957 49.84008 -115.274801 155.72961 15.503761 -139.646464 145.099099 -1.521673 178.649119 -12.259648 44.867228 3.842772 -12.756323 43.41431 -10.610987 6.712728 -18.970565 7.753074 2.4e-05 0.000752 -3.1e-05 -19.040463 -67.4249 -17.819414 -61.312964 70.991358 -28.078058 6.881631 -25.954482 78.889138 -179.996814 75.749388 -0.0 -158.888266 28.999017 -87.624655 -35.988401 15.008227 -6.294769 142.521897 30.772266 -77.246158
